<svg width="25" height="25" viewBox="0 0 25 25" fill="none" xmlns="http://www.w3.org/2000/svg">
<path d="M19.1406 17.9688H14.8438C14.6365 17.9688 14.4378 18.0511 14.2913 18.1976C14.1448 18.3441 14.0625 18.5428 14.0625 18.75C14.0625 18.9572 14.1448 19.1559 14.2913 19.3024C14.4378 19.4489 14.6365 19.5312 14.8438 19.5312H19.1406C19.4514 19.5312 19.7495 19.6547 19.9693 19.8745C20.189 20.0943 20.3125 20.3923 20.3125 20.7031C20.3125 21.0139 20.189 21.312 19.9693 21.5318C19.7495 21.7515 19.4514 21.875 19.1406 21.875H14.0625C13.8554 21.8748 13.6568 21.7924 13.5103 21.646C13.3638 21.4995 13.2814 21.3009 13.2812 21.0938V15.5854C15.2073 15.3894 16.9923 14.4862 18.291 13.0505C19.5897 11.6148 20.31 9.74848 20.3125 7.8125V3.90625C20.3125 3.69905 20.2302 3.50034 20.0837 3.35382C19.9372 3.20731 19.7385 3.125 19.5312 3.125H16.4062V2.34375C16.4062 2.13655 16.3239 1.93784 16.1774 1.79132C16.0309 1.64481 15.8322 1.5625 15.625 1.5625C15.4178 1.5625 15.2191 1.64481 15.0726 1.79132C14.9261 1.93784 14.8438 2.13655 14.8438 2.34375V5.46875C14.8438 5.67595 14.9261 5.87466 15.0726 6.02118C15.2191 6.16769 15.4178 6.25 15.625 6.25C15.8322 6.25 16.0309 6.16769 16.1774 6.02118C16.3239 5.87466 16.4062 5.67595 16.4062 5.46875V4.6875H18.75V7.8125C18.75 9.4701 18.0915 11.0598 16.9194 12.2319C15.7473 13.404 14.1576 14.0625 12.5 14.0625C10.8424 14.0625 9.25268 13.404 8.08058 12.2319C6.90848 11.0598 6.25 9.4701 6.25 7.8125V4.6875H8.59375V5.46875C8.59375 5.67595 8.67606 5.87466 8.82257 6.02118C8.96909 6.16769 9.1678 6.25 9.375 6.25C9.5822 6.25 9.78091 6.16769 9.92743 6.02118C10.0739 5.87466 10.1562 5.67595 10.1562 5.46875V2.34375C10.1562 2.13655 10.0739 1.93784 9.92743 1.79132C9.78091 1.64481 9.5822 1.5625 9.375 1.5625C9.1678 1.5625 8.96909 1.64481 8.82257 1.79132C8.67606 1.93784 8.59375 2.13655 8.59375 2.34375V3.125H5.46875C5.26155 3.125 5.06284 3.20731 4.91632 3.35382C4.76981 3.50034 4.6875 3.69905 4.6875 3.90625V7.8125C4.69001 9.74848 5.41026 11.6148 6.709 13.0505C8.00775 14.4862 9.79271 15.3894 11.7188 15.5854V21.0938C11.7194 21.7151 11.9666 22.3109 12.406 22.7503C12.8454 23.1897 13.4411 23.4368 14.0625 23.4375H19.1406C19.8658 23.4375 20.5613 23.1494 21.0741 22.6366C21.5869 22.1238 21.875 21.4283 21.875 20.7031C21.875 19.9779 21.5869 19.2824 21.0741 18.7696C20.5613 18.2568 19.8658 17.9688 19.1406 17.9688Z" fill="#212123"/>
<path d="M10.1563 17.9688H7.66852C7.48422 17.4475 7.12159 17.0082 6.6447 16.7284C6.16782 16.4487 5.60739 16.3465 5.06248 16.44C4.51756 16.5335 4.02323 16.8166 3.66687 17.2393C3.31051 17.662 3.11506 18.1971 3.11506 18.75C3.11506 19.3029 3.31051 19.838 3.66687 20.2607C4.02323 20.6834 4.51756 20.9665 5.06248 21.06C5.60739 21.1535 6.16782 21.0513 6.6447 20.7716C7.12159 20.4918 7.48422 20.0525 7.66852 19.5313H10.1563C10.3635 19.5313 10.5622 19.4489 10.7087 19.3024C10.8552 19.1559 10.9375 18.9572 10.9375 18.75C10.9375 18.5428 10.8552 18.3441 10.7087 18.1976C10.5622 18.0511 10.3635 17.9688 10.1563 17.9688ZM5.46875 19.5313C5.31424 19.5313 5.16319 19.4854 5.03471 19.3996C4.90624 19.3137 4.8061 19.1917 4.74697 19.049C4.68784 18.9062 4.67237 18.7491 4.70251 18.5976C4.73266 18.446 4.80707 18.3068 4.91632 18.1976C5.02558 18.0883 5.16479 18.0139 5.31634 17.9838C5.46789 17.9536 5.62497 17.9691 5.76772 18.0282C5.91048 18.0874 6.03249 18.1875 6.11834 18.316C6.20418 18.4444 6.25 18.5955 6.25 18.75C6.24982 18.9571 6.16745 19.1558 6.02097 19.3022C5.8745 19.4487 5.6759 19.5311 5.46875 19.5313Z" fill="#212123"/>
</svg>
